<?xml version="1.0" encoding="UTF-8"?><svg id="b" xmlns="http://www.w3.org/2000/svg" viewBox="0 0 72 72"><g id="c"><circle cx="36" cy="36" r="36" fill="#333" stroke-width="0"/><rect x="10.65" y="21.7" width="50.82" height="34.1" fill="none" stroke-width="0"/><path d="m60.92,14.77H11.08c-.99,0-1.76.66-1.76,1.32v39.82c0,.77.77,1.32,1.76,1.32h49.83c.99,0,1.76-.66,1.76-1.32V16.2c0-.77-.77-1.43-1.76-1.43Zm-35.86,1.69c.87,0,1.57.7,1.57,1.57s-.7,1.57-1.57,1.57-1.57-.7-1.57-1.57.7-1.57,1.57-1.57Zm-5.8,0c.87,0,1.57.7,1.57,1.57s-.7,1.57-1.57,1.57-1.57-.7-1.57-1.57.7-1.57,1.57-1.57Zm-5.45,0c.87,0,1.57.7,1.57,1.57s-.7,1.57-1.57,1.57-1.57-.7-1.57-1.57.7-1.57,1.57-1.57Zm47.67,39.34H10.65V21.7h50.82v34.1Z" fill="#fff" stroke-width="0"/><path d="m52.22,33.45h-1.77c-.24,0-.44-.2-.44-.44v-3.98c0-.98-.79-1.77-1.77-1.77h-18.41c-.1,0-.2-.04-.28-.1l-2.04-1.7c-.32-.26-.72-.41-1.13-.41h-6.43c-.98,0-1.77.79-1.77,1.77v23.87c0,.98.79,1.77,1.77,1.77h28.66c.82,0,1.54-.57,1.72-1.37l3.6-15.49c.03-.13.05-.26.05-.4,0-.97-.79-1.76-1.76-1.76Zm-32.14,12.38c-.07,0-.13-.06-.13-.13v-18.44c0-.24.2-.44.44-.44h5.83c.1,0,.2.04.28.1l2.04,1.7c.32.26.72.41,1.13.41h18.13c.24,0,.44.2.44.44v3.54h0c0,.24-.2.44-.44.44h-23.35c-.82,0-1.54.57-1.72,1.37l-2.52,10.91c-.01.06-.07.1-.13.1Zm32-10.07l-3.39,14.59c-.05.2-.22.34-.43.34h-26.87s-.07,0-.1-.01c-.24-.05-.39-.29-.33-.53l3.29-14.25c.09-.4.45-.69.86-.69h26.54s.07,0,.1.01c.24.06.39.29.33.53Z" fill="#fff" stroke-width="0"/></g></svg>