<?xml version="1.0" encoding="UTF-8"?><svg id="b" xmlns="http://www.w3.org/2000/svg" viewBox="0 0 69.6 69.6"><g id="c"><circle cx="34.8" cy="34.8" r="34.8" fill="#333" stroke-width="0"/><path d="m12.5,19.7c-.1.2-.1.4-.1.7v29.7l19.2-15.2-19.1-15.2Z" fill="#fff" stroke-width="0"/><path d="m58.6,20.4c0-.2,0-.5-.1-.7l-19.1,15.1,19.2,15.2s0-29.6,0-29.6Z" fill="#fff" stroke-width="0"/><path d="m34.1,34.8c.4.3.9.5,1.3.5.5,0,1-.2,1.3-.5l20.1-16.1H13.8l20.3,16.1h0Z" fill="#fff" stroke-width="0"/><path d="m52.8,47.7l-12.4-9.9-2.4-1.9-.2.2c-.7.5-1.5.8-2.4.8s-1.7-.3-2.4-.8l-.2-.2-2.6,2-12.2,9.7-4.1,3.3h42.9l-4-3.2Z" fill="#fff" stroke-width="0"/></g></svg>